<svg version="1" xmlns="http://www.w3.org/2000/svg" width="693.333" height="693.333" viewBox="0 0 520.000000 520.000000"><path d="M215 9.3c-2.8 1.4-5.9 6.6-17.6 29.9-4.7 9.2-8.8 16.9-9.3 17.2-.4.3-3.4-3-6.5-7.3-5.9-8.2-7-9.1-11.5-9.1-5.1 0-7.9 4.8-11.7 20.2-.3 1.6-.8 2.8-1.1 2.8-.2 0-4-3.8-8.4-8.4-8.6-9.1-14-12.3-18.2-10.7-4.6 1.8-4.7 4.2-.8 23.8 2.9 14.6 5.1 34.5 5.1 46.7 0 5.3-.4 6.6-2.4 8.5-3.4 3.2-5.6 8.2-5.6 12.6 0 4.3 1.2 6.9 5.1 11.1 2.9 3 2.9 3.2 3.2 16 .2 11.7.5 13.4 2.9 17.9 3.2 6.1 7.7 10.7 13.7 14.3l4.6 2.7h105c101 0 105.1-.1 108.5-1.9 7.2-3.8 10.9-7.7 14.5-14.8 3.4-6.9 3.5-7.3 3.5-19.4 0-10.9.2-12.4 1.9-13.6 3.3-2.3 6.1-8.1 6.1-12.6 0-5-1.1-7.5-5.3-11.9l-3-3.2.7-12.7c.8-15.3 2.9-31.8 5.6-43.9 2.7-12.4 2.6-17-.3-19-4.4-2.8-9.2-.4-18.8 9.6-8.5 8.9-9.9 10-9.9 7.7 0-3.4-5.3-18-7.2-19.8-2.7-2.5-7.8-2.6-10.4-.1-1.2 1-4.3 4.9-6.9 8.5-2.7 3.6-5.2 6.3-5.6 5.9-.4-.5-5.5-10-11.3-21.3-5.8-11.3-11.5-21.8-12.8-23.4-2.9-3.5-7.9-4-10.8-1-1 1-5.7 9.5-10.6 18.9-4.8 9.3-9 17.4-9.5 17.9-.4.5-3-3.7-5.8-9.2-5.8-11.6-8.2-14.2-12.7-14.2-4.2 0-7.1 3.4-13.1 15.3-3.4 6.8-4.7 8.7-5.4 7.6-.6-.8-4.7-8.8-9.3-17.9-4.6-9.1-9.2-17.2-10.2-18.1-2.8-2.5-5.6-3-8.4-1.6zM174.8 230.6c-5.8 3.1-5.8 3.3-5.8 51 0 49.4.1 50.7 7.3 65.4 4.9 10 14.9 21 21 22.9l3.7 1.3v63.9c0 56.9.2 64.4 1.6 67.2 7.2 14.2 26 15.2 34.5 2l2.9-4.7V371.3l5.1-2.4c9.5-4.4 19.2-17.9 24.5-33.9 1.6-4.9 1.9-10.3 2.2-50.7.3-39.6.1-45.7-1.3-48.6-3.9-8.4-15.4-9-20.6-1.1-1.8 2.7-1.9 5.1-1.9 43.7v40.8l-2.6 2.4c-3.4 3.1-6.5 3.2-10.1.1l-2.8-2.4-.3-41.3c-.2-38.9-.4-41.3-2.2-43.9-3.8-5.3-12.6-6.5-17.3-2.3-4.5 4.1-4.7 5.9-4.7 48.2v40l-2.6 2c-3.3 2.6-6.5 2.7-9.5.2l-2.4-1.9-.5-42.2-.5-42.2-3.7-3.4c-4.2-3.8-9.2-4.5-14-1.8zM328.2 231.2c-11.2 5.5-24.5 30.8-29.7 56.3-3.9 19.3-3.7 42.7.5 63.6 3.7 18.2 8.3 29.1 15.6 36.9l4.4 4.7v52.4c0 58.7-.1 57.1 7.3 63.6 9.6 8.4 23.9 5.7 30-5.5l2.7-5-.2-128-.3-128-3-4.4c-5.9-8.4-17.9-11.3-27.3-6.6z"/></svg>