<?xml version="1.0" standalone="no"?>
<!DOCTYPE svg PUBLIC "-//W3C//DTD SVG 20010904//EN"
 "http://www.w3.org/TR/2001/REC-SVG-20010904/DTD/svg10.dtd">
<svg version="1.0" xmlns="http://www.w3.org/2000/svg"
 width="520.000000pt" height="520.000000pt" viewBox="0 0 520.000000 520.000000"
 preserveAspectRatio="xMidYMid meet">
<metadata>
Created by potrace 1.11, written by Peter Selinger 2001-2013
</metadata>
<g transform="translate(0.000000,520.000000) scale(0.100000,-0.100000)"
fill="#000000" stroke="none">
<path d="M2150 5107 c-28 -14 -59 -66 -176 -299 -47 -92 -88 -169 -93 -172 -4
-3 -34 30 -65 73 -59 82 -70 91 -115 91 -51 0 -79 -48 -117 -202 -3 -16 -8
-28 -11 -28 -2 0 -40 38 -84 84 -86 91 -140 123 -182 107 -46 -18 -47 -42 -8
-238 29 -146 51 -345 51 -467 0 -53 -4 -66 -24 -85 -34 -32 -56 -82 -56 -126
0 -43 12 -69 51 -111 29 -30 29 -32 32 -160 2 -117 5 -134 29 -179 32 -61 77
-107 137 -143 l46 -27 1050 0 c1010 0 1051 1 1085 19 72 38 109 77 145 148 34
69 35 73 35 194 0 109 2 124 19 136 33 23 61 81 61 126 0 50 -11 75 -53 119
l-30 32 7 127 c8 153 29 318 56 439 27 124 26 170 -3 190 -44 28 -92 4 -188
-96 -85 -89 -99 -100 -99 -77 0 34 -53 180 -72 198 -27 25 -78 26 -104 1 -12
-10 -43 -49 -69 -85 -27 -36 -52 -63 -56 -59 -4 5 -55 100 -113 213 -58 113
-115 218 -128 234 -29 35 -79 40 -108 10 -10 -10 -57 -95 -106 -189 -48 -93
-90 -174 -95 -179 -4 -5 -30 37 -58 92 -58 116 -82 142 -127 142 -42 0 -71
-34 -131 -153 -34 -68 -47 -87 -54 -76 -6 8 -47 88 -93 179 -46 91 -92 172
-102 181 -28 25 -56 30 -84 16z"/>
<path d="M1748 2894 c-58 -31 -58 -33 -58 -510 0 -494 1 -507 73 -654 49 -100
149 -210 210 -229 l37 -13 0 -639 c0 -569 2 -644 16 -672 72 -142 260 -152
345 -20 l29 47 0 641 0 642 51 24 c95 44 192 179 245 339 16 49 19 103 22 507
3 396 1 457 -13 486 -39 84 -154 90 -206 11 -18 -27 -19 -51 -19 -437 l0 -408
-26 -24 c-34 -31 -65 -32 -101 -1 l-28 24 -3 413 c-2 389 -4 413 -22 439 -38
53 -126 65 -173 23 -45 -41 -47 -59 -47 -482 l0 -400 -26 -20 c-33 -26 -65
-27 -95 -2 l-24 19 -5 422 -5 422 -37 34 c-42 38 -92 45 -140 18z"/>
<path d="M3282 2888 c-112 -55 -245 -308 -297 -563 -39 -193 -37 -427 5 -636
37 -182 83 -291 156 -369 l44 -47 0 -524 c0 -587 -1 -571 73 -636 96 -84 239
-57 300 55 l27 50 -2 1280 -3 1280 -30 44 c-59 84 -179 113 -273 66z"/>
</g>
</svg>
